<?xml version="1.0" standalone="no"?><!DOCTYPE svg PUBLIC "-//W3C//DTD SVG 1.1//EN" "http://www.w3.org/Graphics/SVG/1.1/DTD/svg11.dtd"><svg t="1618125729072" class="icon" viewBox="0 0 1025 1024" version="1.1" xmlns="http://www.w3.org/2000/svg" p-id="1105" xmlns:xlink="http://www.w3.org/1999/xlink" width="32.03125" height="32"><defs><style type="text/css"></style></defs><path d="M61.568 811.616L500.032 550.08v228.16l-0.032 1.248c0 7.2 2.24 13.856 6.048 19.36l-0.064-0.128a40.96 40.96 0 0 0 54.464 14.016l-0.224 0.096 444.416-266.656a47.68 47.68 0 0 0 14.24-13.568l0.096-0.16a37.856 37.856 0 0 0-14.144-54.56l-0.224-0.096-444.608-266.24a38.976 38.976 0 0 0-20.48-5.952 40.96 40.96 0 0 0-40.96 40.96v227.328L61.504 212.16a38.976 38.976 0 0 0-20.48-5.952 40.96 40.96 0 0 0-40.96 40.96v531.04l-0.032 1.248c0 7.2 2.24 13.856 6.048 19.36l-0.064-0.128a37.952 37.952 0 0 0 55.616 12.8l-0.096 0.064z" fill="#ffffff" p-id="1106"></path></svg>