<?xml version="1.0" standalone="no"?><!DOCTYPE svg PUBLIC "-//W3C//DTD SVG 1.1//EN" "http://www.w3.org/Graphics/SVG/1.1/DTD/svg11.dtd"><svg t="1618125898763" class="icon" viewBox="0 0 1024 1024" version="1.1" xmlns="http://www.w3.org/2000/svg" p-id="1101" xmlns:xlink="http://www.w3.org/1999/xlink" width="32" height="32"><defs><style type="text/css"></style></defs><path d="M938.666667 870.4a17.032533 17.032533 0 0 1-10.666667-3.7376L529.066667 547.515733V853.333333a17.066667 17.066667 0 0 1-27.733334 13.329067l-426.666666-341.333333a17.066667 17.066667 0 0 1 0-26.658134l426.666666-341.333333A17.083733 17.083733 0 0 1 529.066667 170.666667v305.8176l398.933333-319.146667c5.137067-4.096 12.1344-4.898133 18.0736-2.065067 5.888 2.850133 9.659733 8.840533 9.659733 15.394134v682.666666a17.083733 17.083733 0 0 1-17.066666 17.066667zM539.323733 512L921.6 817.8176V206.1824L539.323733 512z m-426.666666 0L494.933333 817.8176V206.1824L112.657067 512z" p-id="1102" fill="#ffffff"></path></svg>