<?xml version="1.0" standalone="no"?><!DOCTYPE svg PUBLIC "-//W3C//DTD SVG 1.1//EN" "http://www.w3.org/Graphics/SVG/1.1/DTD/svg11.dtd"><svg t="1618125077656" class="icon" viewBox="0 0 1024 1024" version="1.1" xmlns="http://www.w3.org/2000/svg" p-id="9680" xmlns:xlink="http://www.w3.org/1999/xlink" width="32" height="32"><defs><style type="text/css"></style></defs><path d="M116.48 239.872a32 32 0 1 1 52.736 36.352 416 416 0 1 0 73.6-81.472 32 32 0 1 1-41.344-48.768 480 480 0 1 1-84.992 93.888z" p-id="9681" fill="#ffffff"></path><path d="M448 623.808l145.92-104.192L448 415.36v208.512z m-64-270.784a32 32 0 0 1 50.56-26.048l232.96 166.656a32 32 0 0 1 0 52.032l-232.96 166.4A32 32 0 0 1 384 685.952V353.024z" p-id="9682" fill="#ffffff"></path></svg>