<?xml version="1.0" standalone="no"?><!DOCTYPE svg PUBLIC "-//W3C//DTD SVG 1.1//EN" "http://www.w3.org/Graphics/SVG/1.1/DTD/svg11.dtd"><svg t="1618119873406" class="icon" viewBox="0 0 1024 1024" version="1.1" xmlns="http://www.w3.org/2000/svg" p-id="1749" xmlns:xlink="http://www.w3.org/1999/xlink" width="32" height="32"><defs><style type="text/css"></style></defs><path d="M315.08749971 231.12500029h-56.25C243.33125029 231.12500029 230.75 243.6875 230.75 259.17499971v56.17500029c0 15.48749971 12.56249971 28.05000029 28.08749971 28.05000029h56.25c15.50625029 0 28.08749971-12.56249971 28.08750058-28.05000029v-56.17500029c0-15.48749971-12.56249971-28.05000029-28.08750058-28.04999942z m0 224.62499971h-56.25C243.33125029 455.75 230.75 468.31249971 230.75 483.80000029v56.17499942c0 15.48749971 12.56249971 28.05000029 28.08749971 28.05000029h56.25c15.50625029 0 28.08749971-12.56249971 28.08750058-28.05000029v-56.17499942c0-15.48749971-12.56249971-28.05000029-28.08750058-28.05000029z m0 224.62499971h-56.25c-15.50625029 0-28.08749971 12.56249971-28.08749971 28.05000029v56.17500029c0 15.48749971 12.56249971 28.05000029 28.08749971 28.04999942h56.25c15.50625029 0 28.08749971-12.56249971 28.08750058-28.04999942v-56.17500029c0-15.48749971-12.56249971-28.05000029-28.08750058-28.05000029z m112.42500029-365.02499971h337.34999971a28.06875 28.06875 0 1 0 0-56.09999971H427.5125a28.06875 28.06875 0 1 0 0 56.09999971z m337.34999971 168.45000029H427.5125a28.06875 28.06875 0 1 0 0 56.09999971h337.34999971a28.06875 28.06875 0 1 0 0-56.09999971z m0 224.62499971H427.5125a28.06875 28.06875 0 1 0 0 56.09999971h337.34999971a28.06875 28.06875 0 1 0 0-56.09999971z" fill="#515151" p-id="1750"></path></svg>