<?xml version="1.0" standalone="no"?><!DOCTYPE svg PUBLIC "-//W3C//DTD SVG 1.1//EN" "http://www.w3.org/Graphics/SVG/1.1/DTD/svg11.dtd"><svg t="1618125887336" class="icon" viewBox="0 0 1024 1024" version="1.1" xmlns="http://www.w3.org/2000/svg" p-id="908" xmlns:xlink="http://www.w3.org/1999/xlink" width="32" height="32"><defs><style type="text/css"></style></defs><path d="M512 872.106667a17.066667 17.066667 0 0 1-17.066667-17.066667V549.2224l-398.933333 319.146667A17.066667 17.066667 0 0 1 68.266667 855.04v-682.666667a17.0496 17.0496 0 0 1 27.733333-13.312L494.933333 478.208V172.373333a17.0496 17.0496 0 0 1 27.733334-13.312l426.666666 341.333334a17.015467 17.015467 0 0 1 0 26.641066l-426.666666 341.333334A17.134933 17.134933 0 0 1 512 872.106667z m17.066667-358.4v305.800533L911.342933 513.706667 529.066667 207.889067V513.706667zM102.4 207.889067v611.6352L484.676267 513.706667 102.4 207.889067z" p-id="909" fill="#ffffff"></path></svg>