<?xml version="1.0" standalone="no"?><!DOCTYPE svg PUBLIC "-//W3C//DTD SVG 1.1//EN" "http://www.w3.org/Graphics/SVG/1.1/DTD/svg11.dtd"><svg t="1619698920150" class="icon" viewBox="0 0 1024 1024" version="1.1" xmlns="http://www.w3.org/2000/svg" p-id="2583" xmlns:xlink="http://www.w3.org/1999/xlink" width="32" height="32"><defs><style type="text/css"></style></defs><path d="M416 159.36c0-13.12 2.56-25.536 7.744-37.312 5.12-11.712 11.968-21.888 20.544-30.464 8.576-8.576 18.688-15.36 30.464-20.544C486.464 65.92 498.88 63.36 512 63.36c26.304 0 48.896 9.408 67.776 28.224C598.656 110.528 608 133.056 608 159.36S598.656 208.256 579.776 227.072C560.896 245.952 538.304 255.36 512 255.36c-26.304 0-48.832-9.408-67.712-28.288C425.408 208.256 416 185.664 416 159.36z" p-id="2584" fill="#2c2c2c"></path><path d="M416 523.968c0-13.12 2.56-25.536 7.744-37.248 5.12-11.776 11.968-21.888 20.544-30.464 8.576-8.576 18.688-15.424 30.464-20.544C486.464 430.528 498.88 427.968 512 427.968c26.304 0 48.896 9.408 67.776 28.288S608 497.664 608 523.968c0 26.304-9.344 48.896-28.224 67.776S538.304 620.032 512 620.032c-26.304 0-48.832-9.408-67.712-28.288C425.408 572.8 416 550.272 416 523.968z" p-id="2585" fill="#2c2c2c"></path><path d="M416 864.64c0-13.12 2.56-25.472 7.744-37.248 5.12-11.776 11.968-21.888 20.544-30.464 8.576-8.576 18.688-15.424 30.464-20.544S498.88 768.64 512 768.64c26.304 0 48.896 9.472 67.776 28.288C598.656 815.808 608 838.4 608 864.64c0 26.368-9.344 48.896-28.224 67.776S538.304 960.704 512 960.704c-26.304 0-48.832-9.408-67.712-28.288C425.408 913.472 416 891.008 416 864.64z" p-id="2586" fill="#2c2c2c"></path></svg>