<?xml version="1.0" standalone="no"?><!DOCTYPE svg PUBLIC "-//W3C//DTD SVG 1.1//EN" "http://www.w3.org/Graphics/SVG/1.1/DTD/svg11.dtd"><svg t="1614095413478" class="icon" viewBox="0 0 1024 1024" version="1.1" xmlns="http://www.w3.org/2000/svg" p-id="5190" xmlns:xlink="http://www.w3.org/1999/xlink" width="32" height="32"><defs><style type="text/css"></style></defs><path d="M418.67 577.33A18.67 18.67 0 0 0 400 596v186.67a18.67 18.67 0 0 0 37.33 0V596a18.67 18.67 0 0 0-18.66-18.67z m93.33 56A18.67 18.67 0 0 0 493.33 652v85.61a18.67 18.67 0 1 0 37.33 0V652A18.67 18.67 0 0 0 512 633.33z m93.33-56A18.67 18.67 0 0 0 586.67 596v186.67a18.67 18.67 0 0 0 37.33 0V596a18.67 18.67 0 0 0-18.67-18.67z" fill="#ffffff" p-id="5191"></path><path d="M810.67 522.43v-58c0-164.2-134-297.79-298.67-297.79S213.33 300.26 213.33 464.46v58C129.46 531.76 64 603 64 689.33c0 92.63 75.37 168 168 168a18.67 18.67 0 0 0 18.67-18.67V820h56a18.67 18.67 0 0 0 18.67-18.67v-224a18.67 18.67 0 0 0-18.67-18.67h-56v-90.91c0-0.52 0.06-1 0-1.58v-1.71C250.67 320.84 367.9 204 512 204s261.27 116.78 261.33 260.34v94.33h-56a18.67 18.67 0 0 0-18.67 18.67v224A18.67 18.67 0 0 0 717.33 820h56v18.67A18.67 18.67 0 0 0 792 857.33c92.63 0 168-75.37 168-168 0-86.33-65.46-157.57-149.33-166.9z" fill="#ffffff" p-id="5192"></path></svg>