<?xml version="1.0" standalone="no"?><!DOCTYPE svg PUBLIC "-//W3C//DTD SVG 1.1//EN" "http://www.w3.org/Graphics/SVG/1.1/DTD/svg11.dtd"><svg t="1618120316241" class="icon" viewBox="0 0 1024 1024" version="1.1" xmlns="http://www.w3.org/2000/svg" p-id="5062" xmlns:xlink="http://www.w3.org/1999/xlink" width="32" height="32"><defs><style type="text/css"></style></defs><path d="M429.108915 345.063309v335.576197c0 10.946668-8.878964 19.947262-19.947262 19.947262-10.946668 0-19.947262-8.878964-19.947262-19.947262V345.063309c0-10.946668 8.878964-19.947262 19.947262-19.947262 11.068298 0 19.947262 9.000594 19.947262 19.947262zM912.830022 342.995605c-21.893337-51.81423-53.273785-98.276755-93.16831-138.292909-39.894524-39.894524-86.478679-71.274973-138.292909-93.168309-53.638674-22.744744-110.561349-34.177931-169.308469-34.177931-58.74712 0-115.669795 11.554816-169.308469 34.177931-51.81423 21.893337-98.276755 53.273785-138.292908 93.168309C164.564432 244.597221 133.183983 291.181375 111.290647 342.995605c-22.744744 53.638674-34.177931 110.561349-34.177931 169.308469 0 58.74712 11.554816 115.669795 34.177931 169.308469 21.893337 51.81423 53.273785 98.276755 93.16831 138.292909 39.894524 39.894524 86.478679 71.274973 138.292908 93.16831 53.638674 22.744744 110.561349 34.177931 169.308469 34.177931 105.452904 0 207.135289-38.191709 286.31619-107.520609 8.270816-7.297779 9.122224-19.825632 1.824445-28.096448-7.297779-8.270816-19.825632-9.122224-28.096449-1.824445-72.004751 63.004157-164.321653 97.668607-260.044186 97.668607-53.395415 0-105.088015-10.46015-153.861503-31.01556-47.070673-19.947262-89.276161-48.4086-125.643426-84.654235-36.245635-36.245635-64.828602-78.572752-84.654234-125.643425-20.55541-48.651859-31.01556-100.466089-31.01556-153.861504 0-53.395415 10.46015-105.088015 31.01556-153.739874 19.947262-47.070673 48.4086-89.276161 84.654234-125.643426 36.245635-36.245635 78.572752-64.828602 125.643426-84.654234 48.651859-20.55541 100.466089-31.01556 153.861503-31.01556 53.395415 0 105.088015 10.46015 153.739874 31.01556 47.070673 19.947262 89.276161 48.4086 125.643426 84.654234 36.245635 36.245635 64.828602 78.572752 84.654235 125.643426 20.55541 48.651859 31.01556 100.466089 31.01556 153.739874 0 62.760898-14.230669 122.845944-42.448747 178.309063-4.986816 9.852001-1.094667 21.771707 8.757334 26.758522 9.852001 4.986816 21.771707 1.094667 26.758523-8.757334C931.196099 647.434612 946.886323 581.389714 946.886323 512.304074c0.12163-58.74712-11.311557-115.669795-34.056301-169.308469z m-295.316783-17.879558c-10.946668 0-19.947262 8.878964-19.947263 19.947262v335.576197c0 10.946668 8.878964 19.947262 19.947263 19.947262 10.946668 0 19.947262-8.878964 19.947262-19.947262V345.063309c0-10.946668-9.000594-19.947262-19.947262-19.947262z m0 0" p-id="5063" fill="#515151"></path></svg>